<?xml version="1.0" encoding="utf-8"?>
<!-- Generator: Adobe Illustrator 15.0.2, SVG Export Plug-In . SVG Version: 6.00 Build 0)  -->
<!DOCTYPE svg PUBLIC "-//W3C//DTD SVG 1.1//EN" "http://www.w3.org/Graphics/SVG/1.1/DTD/svg11.dtd">
<svg version="1.1" id="Layer_1" xmlns="http://www.w3.org/2000/svg" xmlns:xlink="http://www.w3.org/1999/xlink" x="0px" y="0px"
	 width="96px" height="32px" viewBox="39.194 44.851 96 32" enable-background="new 39.194 44.851 96 32" xml:space="preserve">
<g id="Layer_1_1_" display="none">
	
		<image display="inline" overflow="visible" enable-background="new    " width="1023" height="769" xlink:href="CB225B1.jpeg"  transform="matrix(0.6092 0 0 0.6078 -63.24 -171.8037)">
	</image>
</g>
<g id="Layer_6" display="none">
	
		<linearGradient id="SVGID_1_" gradientUnits="userSpaceOnUse" x1="679.6125" y1="611.4297" x2="700.8004" y2="584.8668" gradientTransform="matrix(1 0 0 1 -696 -488.25)">
		<stop  offset="0.5399" style="stop-color:#4F5286"/>
		<stop  offset="0.7853" style="stop-color:#8788BD"/>
	</linearGradient>
	<polygon display="inline" fill="url(#SVGID_1_)" points="-28.812,123.688 -28.812,144.313 -27.834,144.313 -27.842,124.742 
		15.25,98.583 14.104,97.729 	"/>
	<g id="L24bxG_1_" display="inline">
		
			<image overflow="visible" enable-background="new    " width="635" height="636" id="L24bxG" xlink:href="CB225B3.jpeg"  transform="matrix(0.9984 0 0 0.9984 -29.0208 -445.5625)">
		</image>
	</g>
</g>
<g id="underneath_1_">
</g>
<g id="BOTTOM_LEFT_LINE">
</g>
<g>
	<g id="_x33_D_PART">
		
			<linearGradient id="SVGID_2_" gradientUnits="userSpaceOnUse" x1="743.7708" y1="554.4961" x2="758.548" y2="552.0379" gradientTransform="matrix(1 0 0 1 -696 -488.25)">
			<stop  offset="0.0368" style="stop-color:#FFFFFF"/>
			<stop  offset="0.8957" style="stop-color:#898CBF"/>
		</linearGradient>
		<polygon fill="url(#SVGID_2_)" points="59.735,60.909 59.735,64.62 53.158,68.413 46.632,64.62 46.339,64.819 53.158,68.818 
			60.031,64.844 60.031,60.737 		"/>
	</g>
	<g id="black_line_thing">
		<polygon fill="#7A7EAE" points="59.735,64.604 60.031,64.818 60.031,64.844 60.013,64.858 59.709,64.636 59.735,64.62 		"/>
	</g>
	<g id="dark_purple_top_line">
		<polygon fill="#663399" points="53.214,60.866 48.581,58.153 48.507,58.226 53.158,60.985 		"/>
		<polygon fill="#663399" points="53.199,60.866 53.233,60.866 53.239,60.904 53.179,60.904 		"/>
	</g>
	<g id="top_black_line">
		<polygon fill="#120F22" points="53.214,60.985 53.214,60.866 63.078,55.164 63.108,55.245 		"/>
	</g>
	<g id="LOGO_DARK_LINES">
		
			<linearGradient id="SVGID_3_" gradientUnits="userSpaceOnUse" x1="749.1331" y1="554.7393" x2="756.1516" y2="554.7393" gradientTransform="matrix(1 0 0 1 -696 -488.25)">
			<stop  offset="0" style="stop-color:#140F2D"/>
			<stop  offset="1" style="stop-color:#3B3C75"/>
		</linearGradient>
		<polygon fill="url(#SVGID_3_)" points="53.214,72.277 53.28,68.873 60.127,64.929 60.152,60.702 60.031,60.702 60.031,64.844 
			53.158,68.818 53.133,72.277 		"/>
	</g>
	<g id="LOGO">
		
			<linearGradient id="SVGID_4_" gradientUnits="userSpaceOnUse" x1="751.0676" y1="549.9805" x2="759.2803" y2="555.3718" gradientTransform="matrix(1 0 0 1 -696 -488.25)">
			<stop  offset="0" style="stop-color:#4C5284"/>
			<stop  offset="1" style="stop-color:#8789BC"/>
		</linearGradient>
		<polygon fill="url(#SVGID_4_)" points="53.214,66.203 53.214,60.985 63.108,55.245 63.108,66.568 53.214,72.277 53.214,68.845 
			60.085,64.888 60.085,60.706 57.785,62.038 57.785,63.515 		"/>
	</g>
	<g id="BOTTOM_LAIN_LEFT_LIGHT_LINE">
		
			<linearGradient id="SVGID_5_" gradientUnits="userSpaceOnUse" x1="749.1145" y1="560.4063" x2="749.0573" y2="556.7447" gradientTransform="matrix(1 0 0 1 -696 -488.25)">
			<stop  offset="0.1104" style="stop-color:#4C407E"/>
			<stop  offset="0.8896" style="stop-color:#666699"/>
			<stop  offset="1" style="stop-color:#A7B3D9"/>
			<stop  offset="1" style="stop-color:#9BA5CD"/>
		</linearGradient>
		<polyline fill="url(#SVGID_5_)" points="53.103,72.277 53.158,72.277 53.158,68.818 52.964,68.704 53.103,72.277 		"/>
	</g>
	<g id="underneath">
		<polyline fill="#2D2868" points="46.323,56.911 46.365,56.946 46.382,64.79 46.339,64.819 46.312,64.803 46.323,56.911 		"/>
	</g>
	<g id="LEFT_3D_PURPLE_SHADOW">
		<polygon fill="#453D76" points="46.632,64.62 46.339,64.819 46.339,56.92 53.214,52.95 53.214,53.342 46.639,57.147 		"/>
	</g>
	<g id="MAIN_DARK_PURPLE_LINE">
		<polygon fill="#453D76" points="53.214,60.846 53.214,66.203 53.158,66.24 53.158,60.985 53.158,60.834 		"/>
	</g>
	<g id="logo_LEFT_side">
		
			<linearGradient id="SVGID_6_" gradientUnits="userSpaceOnUse" x1="740.1663" y1="552.335" x2="751.4235" y2="549.2064" gradientTransform="matrix(1 0 0 1 -696 -488.25)">
			<stop  offset="0.2331" style="stop-color:#666699"/>
			<stop  offset="0.7239" style="stop-color:#A7B3D9"/>
		</linearGradient>
		<polygon fill="url(#SVGID_6_)" points="48.507,58.226 48.507,63.552 53.158,66.24 53.158,60.985 		"/>
		
			<linearGradient id="SVGID_7_" gradientUnits="userSpaceOnUse" x1="740.3606" y1="553.0361" x2="751.6185" y2="549.9074" gradientTransform="matrix(1 0 0 1 -696 -488.25)">
			<stop  offset="0.2331" style="stop-color:#666699"/>
			<stop  offset="0.9907" style="stop-color:#A7B3D9"/>
		</linearGradient>
		<polygon fill="url(#SVGID_7_)" points="53.103,72.221 53.103,68.786 46.339,64.819 46.339,56.958 43.28,55.164 43.28,66.588 
			53.103,72.277 		"/>
	</g>
	<g id="left_purple_line">
		<rect x="46.286" y="56.92" fill="#2D2868" width="0.052" height="7.899"/>
		<polygon fill="#2D2868" points="46.339,56.92 43.319,55.125 43.28,55.164 46.312,56.946 		"/>
	</g>
	<g id="BOTTOM_PURPLE_LINE">
		
			<linearGradient id="SVGID_8_" gradientUnits="userSpaceOnUse" x1="742.8821" y1="553.5654" x2="747.359" y2="555.9611" gradientTransform="matrix(1 0 0 1 -696 -488.25)">
			<stop  offset="0" style="stop-color:#6E70A9"/>
			<stop  offset="0.9693" style="stop-color:#514A8E"/>
		</linearGradient>
		<polygon fill="url(#SVGID_8_)" points="53.103,68.786 53.103,68.851 46.286,64.88 46.286,64.819 46.339,64.819 		"/>
	</g>
	<g id="top_middle_light_line">
		
			<linearGradient id="SVGID_9_" gradientUnits="userSpaceOnUse" x1="749.5315" y1="541.7627" x2="752.374" y2="543.1456" gradientTransform="matrix(1 0 0 1 -696 -488.25)">
			<stop  offset="0.0368" style="stop-color:#9EA5D3"/>
			<stop  offset="0.9018" style="stop-color:#7675AE"/>
		</linearGradient>
		<polygon fill="url(#SVGID_9_)" points="53.214,52.95 57.611,55.52 57.611,55.904 53.214,53.342 		"/>
	</g>
	<g id="top_right">
		<polygon fill="#484592" points="57.611,55.52 57.611,55.904 60.655,54.119 60.655,53.756 		"/>
	</g>
	<g id="MAIN_TOP">
		<path fill="none" d="M43.28,55.164"/>
		
			<linearGradient id="SVGID_10_" gradientUnits="userSpaceOnUse" x1="739.3186" y1="543.375" x2="739.3186" y2="543.375" gradientTransform="matrix(1 0 0 1 -696 -488.25)">
			<stop  offset="0.2331" style="stop-color:#666699"/>
			<stop  offset="0.9907" style="stop-color:#A7B3D9"/>
		</linearGradient>
		<path fill="url(#SVGID_10_)" d="M43.319,55.125"/>
		
			<linearGradient id="SVGID_11_" gradientUnits="userSpaceOnUse" x1="748.3625" y1="538.5049" x2="747.6921" y2="545.9537" gradientTransform="matrix(1 0 0 1 -696 -488.25)">
			<stop  offset="0" style="stop-color:#AAACD2"/>
			<stop  offset="0.6258" style="stop-color:#FCFAFB"/>
		</linearGradient>
		<polygon fill="url(#SVGID_11_)" points="53.182,49.423 60.655,53.756 57.611,55.52 53.214,52.95 46.339,56.92 43.319,55.125 		"/>
		
			<linearGradient id="SVGID_12_" gradientUnits="userSpaceOnUse" x1="752.4836" y1="537.6445" x2="751.8132" y2="545.0939" gradientTransform="matrix(1 0 0 1 -696 -488.25)">
			<stop  offset="0.6743" style="stop-color:#AAACD2"/>
			<stop  offset="1" style="stop-color:#FCFAFB"/>
		</linearGradient>
		<polygon fill="url(#SVGID_12_)" points="48.581,58.153 53.155,55.569 57.512,58.029 62.822,54.977 63.078,55.164 53.214,60.866 		
			"/>
	</g>
</g>
</svg>
