<?xml version="1.0" encoding="utf-8"?>
<!-- Generator: Adobe Illustrator 15.0.2, SVG Export Plug-In . SVG Version: 6.00 Build 0)  -->
<!DOCTYPE svg PUBLIC "-//W3C//DTD SVG 1.1//EN" "http://www.w3.org/Graphics/SVG/1.1/DTD/svg11.dtd">
<svg version="1.1" id="svg1354" xmlns:svg="http://www.w3.org/2000/svg"
	 xmlns="http://www.w3.org/2000/svg" xmlns:xlink="http://www.w3.org/1999/xlink" x="0px" y="0px" width="96px" height="32px"
	 viewBox="472.806 199.949 96 32" enable-background="new 472.806 199.949 96 32" xml:space="preserve">
<g>
	<path id="path1363" fill="#999999" d="M477.104,222.175c-0.545-0.149-1.077-0.655-1.309-1.244c-0.156-0.396-0.719-2.378-2.693-9.48
		l-0.296-1.065l1.335-0.008c0.735-0.004,1.345,0.002,1.356,0.015c0.012,0.013,0.512,1.948,1.111,4.301l1.09,4.278l0.518-1.983
		c1.23-4.71,1.439-5.469,1.595-5.795c0.209-0.439,0.575-0.754,1.01-0.867c0.229-0.06,0.756-0.061,0.983-0.001
		c0.479,0.125,0.853,0.47,1.059,0.977c0.125,0.309,0.396,1.304,1.405,5.174c0.34,1.303,0.628,2.394,0.64,2.422
		c0.014,0.033,0.435-1.567,1.117-4.237l1.095-4.29l1.356,0c1.072,0,1.354,0.008,1.343,0.038c-0.007,0.021-0.296,1.057-0.642,2.302
		c-1.653,5.954-2.229,7.953-2.391,8.305c-0.275,0.599-0.738,1.016-1.288,1.159c-0.229,0.06-0.729,0.06-0.956,0.001
		c-0.317-0.083-0.499-0.192-0.77-0.463c-0.212-0.212-0.28-0.305-0.396-0.542c-0.189-0.386-0.373-1.016-1.537-5.295
		c-0.274-1.006-0.505-1.85-0.515-1.875s-0.292,0.959-0.628,2.187c-0.739,2.698-1.128,4.092-1.249,4.473
		c-0.262,0.824-0.737,1.351-1.364,1.512C477.86,222.231,477.313,222.232,477.104,222.175z M491.156,218.036v-4.095h1.275h1.275
		v4.095v4.095h-1.275h-1.275V218.036z M496.286,218.036v-4.095h1.274h1.275v4.095v4.095h-1.275h-1.274V218.036z M499.796,221.726
		v-0.405h-0.15c-0.14,0-0.149-0.005-0.149-0.075v-0.075h0.39h0.39v0.075c0,0.07-0.01,0.075-0.149,0.075h-0.15v0.405v0.405h-0.09
		h-0.09V221.726z M500.336,221.65v-0.48h0.134h0.134l0.091,0.296c0.051,0.163,0.092,0.314,0.092,0.336
		c0,0.094,0.059-0.035,0.147-0.324l0.094-0.308h0.135h0.134v0.48v0.48h-0.09h-0.09l-0.003-0.337
		c-0.002-0.365-0.001-0.366-0.133,0.077c-0.079,0.264-0.079,0.264-0.174,0.255c-0.092-0.009-0.096-0.015-0.185-0.324l-0.091-0.315
		l-0.009,0.323l-0.009,0.322h-0.089h-0.089V221.65z M492.071,212.527c-0.578-0.117-1.056-0.612-1.154-1.193
		c-0.12-0.709,0.353-1.422,1.065-1.607c0.364-0.095,0.829-0.045,1.161,0.123c0.199,0.101,0.5,0.39,0.602,0.577
		c0.35,0.642,0.143,1.479-0.461,1.866C492.95,212.506,492.448,212.604,492.071,212.527z M497.201,212.527
		c-0.749-0.151-1.278-0.897-1.157-1.629c0.093-0.562,0.519-1.029,1.068-1.172c0.363-0.095,0.829-0.045,1.16,0.122
		c0.199,0.101,0.48,0.37,0.593,0.566c0.362,0.632,0.156,1.487-0.451,1.876C498.08,212.506,497.578,212.604,497.201,212.527z"/>
</g>
</svg>
